# File created by Blade
# Date/Time:  Wed Apr 08 17:04:14 2015
#---------------------------------------------------------
:version 1.10
:name HOM
:units
  mass 1.0
  length 1.000000
  angle deg
:documentation
     Acclaim Skeleton File
:root
   axis xyz
   order TX TY TZ RX RY RZ
   position 0.000000 0.000000 0.000000
   orientation 0 0 0
:bonedata
   begin
      id 1
      name Spine_dum
      direction 0.000000 1.000000 0.000000
      length 5.893853
      axis 0.0 0.0 0.0 xyz
   end
   begin
      id 2
      name LeftUpLeg_dum
      direction 1.000000 0.000000 0.000000
      length 3.697939
      axis 0.0 0.0 0.0 xyz
   end
   begin
      id 3
      name RightUpLeg_dum
      direction -1.000000 0.000000 0.000000
      length 3.697939
      axis 0.0 0.0 0.0 xyz
   end
   begin
      id 4
      name Spine
      direction 0.000000 1.000000 0.000000
      length 0.000000
      axis 0.0 0.0 0.0 xyz
      dof rx ry rz
   end
   begin
      id 5
      name Spine_dum1
      direction 0.000000 1.000000 0.000000
      length 16.447146
      axis 0.0 0.0 0.0 xyz
   end
   begin
      id 6
      name Spine_dum2
      direction 0.000000 1.000000 0.000000
      length 10.900383
      axis 0.0 0.0 0.0 xyz
   end
   begin
      id 7
      name Spine_dum3
      direction 0.000000 1.000000 0.000000
      length 10.900383
      axis 0.0 0.0 0.0 xyz
   end
   begin
      id 8
      name Head
      direction 0.000000 1.000000 0.000000
      length 4.527550
      axis 0.0 0.0 0.0 xyz
      dof rx ry rz
   end
   begin
      id 9
      name LeftShoulder
      direction 1.000000 0.000000 0.000000
      length 8.219464
      axis 0.0 0.0 -90.0 xyz
      dof rx ry rz
   end
   begin
      id 10
      name LeftArm
      direction 1.000000 0.000000 0.000000
      length 11.094937
      axis 0.0 0.0 -90.0 xyz
      dof rx ry rz
   end
   begin
      id 11
      name LeftForeArm
      direction 1.000000 0.000000 0.000000
      length 9.103875
      axis 0.0 0.0 -90.0 xyz
      dof ry rz rx
   end
   begin
      id 12
      name LeftHand
      direction 0.000000 0.000000 0.000000
      length 0.000000
      axis 0.0 0.0 -90.0 xyz
      dof rx ry rz
   end
   begin
      id 13
      name LeftHand_dum1
      direction 0.000000 0.000000 0.000000
      length 0.000000
      axis 0.0 0.0 -90.0 xyz
   end
   begin
      id 14
      name LeftHand_dum2
      direction 1.000000 0.000000 0.000000
      length 3.937000
      axis 0.0 0.0 -90.0 xyz
   end
   begin
      id 15
      name LeftHandThumb1
      direction 0.000000 0.000000 1.000000
      length 3.937000
      axis 0.0 0.0 -90.0 xyz
      dof rx rz ry
   end
   begin
      id 16
      name RightShoulder
      direction -1.000000 0.000000 0.000000
      length 8.219464
      axis 0.0 0.0 90.0 xyz
      dof rx ry rz
   end
   begin
      id 17
      name RightArm
      direction -1.000000 0.000000 0.000000
      length 11.094937
      axis 0.0 0.0 90.0 xyz
      dof rx ry rz
   end
   begin
      id 18
      name RightForeArm
      direction -1.000000 0.000000 0.000000
      length 9.103875
      axis 0.0 0.0 90.0 xyz
      dof ry rz rx
   end
   begin
      id 19
      name RightHand
      direction 0.000000 0.000000 0.000000
      length 0.000000
      axis 0.0 0.0 90.0 xyz
      dof rx ry rz
   end
   begin
      id 20
      name RightHand_dum1
      direction 0.000000 0.000000 0.000000
      length 0.000000
      axis 0.0 0.0 90.0 xyz
   end
   begin
      id 21
      name RightHand_dum2
      direction -1.000000 0.000000 0.000000
      length 3.937000
      axis 0.0 0.0 90.0 xyz
   end
   begin
      id 22
      name RightHandThumb1
      direction 0.000000 0.000000 1.000000
      length 3.937000
      axis 0.0 0.0 90.0 xyz
      dof rx rz ry
   end
   begin
      id 23
      name LeftUpLeg
      direction 0.000000 -1.000000 0.000000
      length 16.181467
      axis 0.0 0.0 0.0 xyz
      dof rx ry rz
   end
   begin
      id 24
      name LeftLeg
      direction 0.000000 -1.000000 0.000000
      length 16.501392
      axis 0.0 0.0 0.0 xyz
      dof rx ry rz
   end
   begin
      id 25
      name LeftFoot
      direction 0.000000 -0.258819 0.965926
      length 6.408245
      axis 15.0 0.0 0.0 xyz
      dof rx ry rz
   end
   begin
      id 26
      name LeftToeBase
      direction 0.000000 0.000000 1.000000
      length 2.952750
      axis 0.0 0.0 0.0 xyz
      dof rx ry rz
   end
   begin
      id 27
      name RightUpLeg
      direction 0.000000 -1.000000 0.000000
      length 16.181467
      axis 0.0 0.0 0.0 xyz
      dof rx ry rz
   end
   begin
      id 28
      name RightLeg
      direction 0.000000 -1.000000 0.000000
      length 16.501392
      axis 0.0 0.0 0.0 xyz
      dof rx ry rz
   end
   begin
      id 29
      name RightFoot
      direction 0.000000 -0.258819 0.965926
      length 6.408245
      axis 15.0 0.0 0.0 xyz
      dof rx ry rz
   end
   begin
      id 30
      name RightToeBase
      direction 0.000000 0.000000 1.000000
      length 2.952750
      axis 0.0 0.0 0.0 xyz
      dof rx ry rz
   end
:hierarchy
   begin
      root Spine_dum LeftUpLeg_dum RightUpLeg_dum
      Spine_dum Spine
      LeftUpLeg_dum LeftUpLeg
      RightUpLeg_dum RightUpLeg
      Spine Spine_dum1 Spine_dum2 Spine_dum3
      Spine_dum1 Head
      Spine_dum2 LeftShoulder
      Spine_dum3 RightShoulder
      LeftShoulder LeftArm
      LeftArm LeftForeArm
      LeftForeArm LeftHand
      LeftHand LeftHand_dum1 LeftHand_dum2
      LeftHand_dum1 LeftHandThumb1
      RightShoulder RightArm
      RightArm RightForeArm
      RightForeArm RightHand
      RightHand RightHand_dum1 RightHand_dum2
      RightHand_dum1 RightHandThumb1
      LeftUpLeg LeftLeg
      LeftLeg LeftFoot
      LeftFoot LeftToeBase
      RightUpLeg RightLeg
      RightLeg RightFoot
      RightFoot RightToeBase
   end

# File created by Blade
# Date/Time:  Wed Apr 08 17:04:22 2015
# Frame Rate: 120.000 fps
#------------------------------------------------------
:FULLY-SPECIFIED
:DEGREES
126
root 4.460339 35.980158 3.971895 -155.297443 -71.051281 176.318066
Spine -18.531900 -20.540431 -2.685748
Head 12.847360 -5.114223 2.489775
LeftShoulder 15.760408 -7.789587 32.483096
LeftArm 105.157787 43.958500 -35.770437
LeftForeArm 28.343514 -0.000000 86.555725
LeftHand -16.891916 0.000000 20.112697
LeftHandThumb1 -26.253704 0.000000 33.147579
RightShoulder -2.801540 -48.465047 -32.496874
RightArm 81.427835 -24.141606 0.956338
RightForeArm -24.173608 -0.000000 50.071291
RightHand 17.417189 -0.000000 -11.466783
RightHandThumb1 -24.326973 -0.000000 -32.862282
LeftUpLeg -22.668426 16.991861 -4.760540
LeftLeg 15.064858 -0.000000 -0.000000
LeftFoot -17.085763 14.370604 -14.997501
LeftToeBase 9.272539 -0.000000 -0.000000
RightUpLeg -30.697294 0.820012 -11.672528
RightLeg 15.680603 -0.000000 -0.000000
RightFoot -7.180867 5.797215 17.916378
RightToeBase 12.178815 -0.000000 -0.000000
127
root 4.455706 35.978520 3.967903 -155.316997 -71.072515 176.313219
Spine -18.484339 -20.624245 -2.692715
Head 13.236474 -5.273775 2.428307
LeftShoulder 15.771223 -7.754699 32.438621
LeftArm 105.166007 44.016410 -35.799461
LeftForeArm 28.135401 -0.000000 86.909468
LeftHand -16.826902 -0.000000 20.156753
LeftHandThumb1 -26.253704 0.000000 33.147579
RightShoulder -2.656668 -48.537713 -32.745275
RightArm 81.371380 -24.523546 1.083431
RightForeArm -24.335375 0.000000 49.830445
RightHand 18.091942 -0.000000 -12.829364
RightHandThumb1 -24.326973 -0.000000 -32.862282
LeftUpLeg -22.641458 16.981147 -4.743693
LeftLeg 15.077747 -0.000000 -0.000000
LeftFoot -17.100816 14.375382 -14.986306
LeftToeBase 9.286536 -0.000000 -0.000000
RightUpLeg -30.681764 0.800600 -11.658330
RightLeg 15.727262 -0.000000 -0.000000
RightFoot -7.214369 5.817865 17.912163
RightToeBase 12.205853 -0.000000 -0.000000
128
root 4.452340 35.976681 3.965187 -155.329796 -71.036764 176.298372
Spine -18.430396 -20.654394 -2.740900
Head 13.638667 -5.453879 2.370064
LeftShoulder 15.765559 -7.767865 32.422417
LeftArm 105.155843 44.096335 -35.844035
LeftForeArm 27.748077 -0.000000 87.266469
LeftHand -16.800518 -0.000000 20.101234
LeftHandThumb1 -26.253704 0.000000 33.147579
RightShoulder -2.495871 -48.560528 -33.012194
RightArm 81.414195 -24.933125 1.092781
RightForeArm -24.528730 -0.000000 49.480865
RightHand 18.686939 0.000000 -13.729805
RightHandThumb1 -24.326973 -0.000000 -32.862282
LeftUpLeg -22.600211 16.999815 -4.748155
LeftLeg 15.069792 -0.000000 -0.000000
LeftFoot -17.117055 14.411957 -14.978087
LeftToeBase 9.282689 -0.000000 -0.000000
RightUpLeg -30.696748 0.842768 -11.681561
RightLeg 15.799355 -0.000000 -0.000000
RightFoot -7.234821 5.835068 17.933099
RightToeBase 12.168281 -0.000000 -0.000000
129
root 4.448391 35.975640 3.963714 -155.315119 -70.990890 176.265194
Spine -18.388682 -20.675321 -2.818400
Head 14.053867 -5.637865 2.352569
LeftShoulder 15.758716 -7.846709 32.509681
LeftArm 104.816819 44.287692 -36.290533
LeftForeArm 26.335438 -0.000000 87.821301
LeftHand -16.592135 0.000000 18.979599
LeftHandThumb1 -26.253704 0.000000 33.147579
RightShoulder -2.383807 -48.609693 -33.148319
RightArm 81.363404 -25.313337 1.130382
RightForeArm -24.706088 -0.000000 49.145517
RightHand 18.962011 -0.000000 -14.877518
RightHandThumb1 -24.326973 -0.000000 -32.862282
LeftUpLeg -22.565031 17.015068 -4.765205
LeftLeg 15.057531 -0.000000 -0.000000
LeftFoot -17.132851 14.437771 -14.993031
LeftToeBase 9.295319 -0.000000 -0.000000
RightUpLeg -30.727527 0.882767 -11.713520
RightLeg 15.878219 -0.000000 -0.000000
RightFoot -7.258218 5.850413 17.909491
RightToeBase 12.138935 -0.000000 -0.000000
